<svg xmlns="http://www.w3.org/2000/svg" xmlns:xlink="http://www.w3.org/1999/xlink" width="184.615" height="160" viewBox="0 0 184.615 160">
  <defs>
    <linearGradient id="linear-gradient" x1="0.202" y1="0.064" x2="1" y2="1.029" gradientUnits="objectBoundingBox">
      <stop offset="0" stop-color="#14265a"/>
      <stop offset="1" stop-color="#3b5aaf"/>
    </linearGradient>
  </defs>
  <path id="Path_27" data-name="Path 27" d="M80.323,156.515H10.462L45.384,96.351Zm3.652,2.105a4.145,4.145,0,0,0,0-4.208L49.051,94.248a4.24,4.24,0,0,0-7.327,0L6.8,154.41a4.149,4.149,0,0,0,0,4.21,4.2,4.2,0,0,0,3.665,2.1H80.313a4.2,4.2,0,0,0,3.665-2.1Zm54.079-.526a3.109,3.109,0,0,0,0-3.158L75.633,47.4a3.179,3.179,0,0,0-5.492,0L47.259,86.815a1.048,1.048,0,0,0,.383,1.434l0,0a1.048,1.048,0,0,0,1.442-.386L71.972,48.45a1.056,1.056,0,0,1,1.829,0l62.425,107.54a1.022,1.022,0,0,1,0,1.053,1.034,1.034,0,0,1-.915.526H91.7a1.052,1.052,0,0,0,0,2.1h43.612a3.137,3.137,0,0,0,2.746-1.579Zm21.066-10.485h2.615V135.083H159.12Zm-12.971-6.162a6.974,6.974,0,0,0,1.538,4.779,5.365,5.365,0,0,0,4.229,1.734,5.041,5.041,0,0,0,3.558-1.285,5.618,5.618,0,0,0,1.731-3.331h-2.613a3.958,3.958,0,0,1-.654,1.452,2.47,2.47,0,0,1-2.063.9,2.693,2.693,0,0,1-2.178-1.048,4.926,4.926,0,0,1-.855-3.156,5.617,5.617,0,0,1,.812-3.264,2.87,2.87,0,0,1,4.3-.332,3.52,3.52,0,0,1,.646,1.359h2.631a4.517,4.517,0,0,0-.861-2.338,5.9,5.9,0,0,0-8.474-.528,6.912,6.912,0,0,0-1.747,5.059Zm-43.068,1.891,2.393,4.271h3.191l-4.093-6.485,3.855-6.042h-3.043l-2.305,4.08-2.248-4.078H97.685l3.855,6.142-4.05,6.385h3.06l2.529-4.271Zm-17.725-1.891a6.963,6.963,0,0,0,1.538,4.779,5.357,5.357,0,0,0,4.225,1.734,5.044,5.044,0,0,0,3.562-1.285,5.618,5.618,0,0,0,1.731-3.331H93.8a3.992,3.992,0,0,1-.654,1.452,2.48,2.48,0,0,1-2.065.9,2.709,2.709,0,0,1-2.182-1.048,4.951,4.951,0,0,1-.853-3.156,5.617,5.617,0,0,1,.812-3.264,2.87,2.87,0,0,1,4.3-.332,3.521,3.521,0,0,1,.642,1.359h2.633a4.464,4.464,0,0,0-.861-2.338,5.9,5.9,0,0,0-8.474-.528,6.92,6.92,0,0,0-1.745,5.059Zm-33.868,1.891,2.4,4.271h3.2l-4.1-6.485,3.855-6.042H53.8l-2.309,4.08-2.246-4.078H46.1l3.857,6.142L45.9,147.611h3.06l2.527-4.271Zm-17.181-.555a6.41,6.41,0,0,0,.625,3.109q1.166,2.038,4.434,2.04t4.428-2.04a6.41,6.41,0,0,0,.625-3.109v-7.7H41.742v7.692a4.338,4.338,0,0,1-.306,1.887,2.03,2.03,0,0,1-2.069,1.053,2.038,2.038,0,0,1-2.077-1.053,4.379,4.379,0,0,1-.306-1.883v-7.7H34.31v7.7ZM187.658,159.67H146.723a1.052,1.052,0,1,1,0-2.1H187.66a1.053,1.053,0,0,0,.917-1.579L99.98,3.352a1.044,1.044,0,0,0-.919-.526,1.03,1.03,0,0,0-.911.526L77.573,38.8a1.062,1.062,0,0,1-1.444.383,1.05,1.05,0,0,1-.386-1.436h0L96.315,2.3a3.183,3.183,0,0,1,5.5,0l88.6,152.636a3.1,3.1,0,0,1,0,3.158,3.136,3.136,0,0,1-2.746,1.577Z" transform="translate(-6.225 -0.723)" fill="url(#linear-gradient)"/>
</svg>
