<svg xmlns="http://www.w3.org/2000/svg" xmlns:xlink="http://www.w3.org/1999/xlink" width="87.904" height="160" viewBox="0 0 87.904 160">
  <defs>
    <linearGradient id="linear-gradient" x1="0.202" y1="0.064" x2="1" y2="1.029" gradientUnits="objectBoundingBox">
      <stop offset="0" stop-color="#14265a"/>
      <stop offset="1" stop-color="#3b5aaf"/>
    </linearGradient>
  </defs>
  <path id="Path_29" data-name="Path 29" d="M50.354,34.867H48.462v3.789h1.891V34.867Zm0,7.58H48.462v3.791h1.891V42.448Zm0,7.582H48.462v3.789h1.891V50.03Zm0,7.58H48.462V61.4h1.891V57.608Zm0,7.582H48.462v3.791h1.891V65.193Zm0,7.582H48.462v3.791h1.891V72.771Zm0,7.582H48.462v3.789h1.891V80.357Zm0,7.58H48.462v3.793h1.891V87.933Zm0,7.582H48.462v3.791h1.891V95.52Zm0,7.58H48.462v3.793h1.891v-3.793Zm0,7.583H48.462v3.791h1.891v-3.784Zm0,7.582H48.462v3.791h1.891V118.26Zm0,7.583-1.893.181h1.891v-.181Zm.569-1.715H5.455v3.793H50.924v-3.793ZM93.359,29.923H47.89v3.794H93.359ZM65.684,25.337V20.715a.945.945,0,1,0-1.889,0v4.624a.945.945,0,1,0,1.889,0h0Zm7.487-1.517V.946a.945.945,0,0,0-1.891,0V23.827a.945.945,0,0,0,1.891,0ZM83.4,26.859V14.707a.947.947,0,0,0-1.891,0V26.862a.945.945,0,0,0,1.891,0ZM38.052,139.275V134.65a.945.945,0,1,0-1.889,0v4.625a.946.946,0,0,0,1.889,0ZM30.566,159.05V136.177a.946.946,0,1,0-1.893,0h0v22.881a.946.946,0,0,0,1.893,0ZM19.4,146.234a.946.946,0,0,1-.945-.947V133.13a.945.945,0,0,1,1.891,0v12.155a.946.946,0,0,1-.945.947Z" transform="translate(-5.455 -0.004)" fill="url(#linear-gradient)"/>
</svg>
