<svg xmlns="http://www.w3.org/2000/svg" xmlns:xlink="http://www.w3.org/1999/xlink" width="210" height="276" viewBox="0 0 210 276">
  <defs>
    <linearGradient id="linear-gradient" x1="0.202" y1="0.064" x2="1" y2="1.029" gradientUnits="objectBoundingBox">
      <stop offset="0" stop-color="#14265a"/>
      <stop offset="1" stop-color="#3b5aaf"/>
    </linearGradient>
  </defs>
  <path id="Path_14" data-name="Path 14" d="M-444.321,474.661c0-40.518-33.113-73.482-73.814-73.482s-73.809,32.965-73.809,73.482a73.612,73.612,0,0,0,23.99,54.191c.417.341.954.8,1.494,1.273l.834.735a71.387,71.387,0,0,1,23.138,44.9h48.713A71.034,71.034,0,0,1-470.7,530.931l.5-.453q.972-.876,1.971-1.717a73.564,73.564,0,0,0,23.9-54.1Zm34.268,184.661c-4.478,7.728-14.551,11.428-28.31,11.428-24.133,0-59.62-11.387-96.241-32.431-57.507-33.053-92.887-75.6-80.547-96.877a1.563,1.563,0,0,1,.63-.577,8.226,8.226,0,0,1-1.443-4.66,8.318,8.318,0,0,1,8.335-8.3,8.317,8.317,0,0,1,8.335,8.3,8.315,8.315,0,0,1-8.329,8.3,8.351,8.351,0,0,1-4.726-1.469l-.007.017c-11.237,19.382,24.368,60.868,79.369,92.48q5.808,3.335,11.749,6.427a311.846,311.846,0,0,0,29.024-14.753c55-31.614,90.61-73.1,79.369-92.48-5.4-9.317-21.668-12.072-44.74-7.688a80.647,80.647,0,0,1-6.388,6.56c-.709.6-1.3,1.129-1.9,1.66l-.494.444A64.718,64.718,0,0,0-485.146,565.7a295.174,295.174,0,0,1,34.807,24.292,1.605,1.605,0,0,1,.17,2.269,1.618,1.618,0,0,1-2.221.214,291.754,291.754,0,0,0-33.59-23.511,64.646,64.646,0,0,0-1.627,10.249l-.214,2.987h-60.611l-.217-2.987a64.861,64.861,0,0,0-1.886-11.4,261.136,261.136,0,0,0-32.974,25.637,1.62,1.62,0,0,1-2.284-.08,1.606,1.606,0,0,1,.083-2.272,265.409,265.409,0,0,1,34.222-26.525,65.133,65.133,0,0,0-18.466-28.931l-.744-.659q-.743-.651-1.5-1.286a80.124,80.124,0,0,1-26.2-59.028c0-44.07,36.01-79.915,80.267-79.915s80.273,35.847,80.273,79.911a79.844,79.844,0,0,1-16.614,48.556c22.839-3.717,38.515-.291,44.42,9.9,12.343,21.27-23.04,63.822-80.545,96.873q-13.163,7.564-27.011,13.844c49.343,24.923,94.574,31.453,104.763,13.883,6.949-11.983-4.631-33.906-30.216-57.2a1.609,1.609,0,0,1-.1-2.272,1.621,1.621,0,0,1,2.281-.1c27.175,24.743,38.7,47.617,30.834,61.183Zm-159.405-9.854a8.442,8.442,0,0,0-8.463,8.421c0,.25.053.483.072.724-17.769,1.856-29.953-1.377-34.509-9.227-5.988-10.324,1.455-27.689,20.416-47.638a1.605,1.605,0,0,0-.06-2.275h0a1.621,1.621,0,0,0-2.284.062c-20.017,21.054-27.617,39.81-20.861,51.455,4.32,7.448,14.155,11.331,28.232,11.331a93.345,93.345,0,0,0,9.949-.624,8.44,8.44,0,0,0,7.51,4.614A8.444,8.444,0,0,0-561,657.886a8.44,8.44,0,0,0-8.46-8.421Zm29.631-43.735a1.609,1.609,0,0,0-1.544,1.674,1.611,1.611,0,0,0,1.544,1.541h43.391a1.611,1.611,0,0,0,1.53-1.689,1.61,1.61,0,0,0-1.53-1.524h-43.391Zm-7.413-5.517h58.216a1.61,1.61,0,0,0,1.545-1.674A1.611,1.611,0,0,0-489.025,597h-58.216a1.609,1.609,0,0,0-1.544,1.674A1.611,1.611,0,0,0-547.241,600.215Zm-1.613-11.131a1.61,1.61,0,0,1,1.613-1.609h58.216a1.609,1.609,0,0,1,1.545,1.674,1.611,1.611,0,0,1-1.545,1.541h-58.216a1.612,1.612,0,0,1-1.613-1.606Z" transform="translate(617.603 -394.75)" fill="url(#linear-gradient)"/>
</svg>
