<svg xmlns="http://www.w3.org/2000/svg" width="331" height="237" viewBox="0 0 331 237">
  <g id="Group_38" data-name="Group 38" transform="translate(1640.5 -0.5)">
    <path id="Path_17" data-name="Path 17" d="M-1640,181.227a17.267,17.267,0,0,1,.249-2.517c1.4-5.712,2.878-11.4,6.18-16.4a7.039,7.039,0,0,1,4.924-3.2c9.214-1.662,18.518-2.008,27.843-2.153,1.97-.031,1.977,0,2.257-1.871.63-4.21,1.283-8.416,1.855-12.634.121-.888.435-1.13,1.3-1.11,2.439.057,4.88.02,7.526.02V139.64q0-51.259-.007-102.519c0-5.39,2.9-8.294,8.28-8.294l189.049-.019h1.875c.821-2.371,1.431-4.737,2.432-6.925,5.271-11.517,14.178-18.4,26.75-20.5A11.376,11.376,0,0,0-1358.156,1h6.845c1.363.3,2.728.584,4.088.9a34.639,34.639,0,0,1,24.338,46.82c-.477,1.184-.211,1.729.843,2.073a2.016,2.016,0,0,0,1.146-.029c1.358-.419,2.7-.878,4.042-1.356a2,2,0,0,1,2.68.986q1.214,2.109,2.417,4.223c1.893,3.335,1.982,3.448-1.024,5.867-1.732,1.394-2.514,2.843-2.13,5.057a3.419,3.419,0,0,0,1.118,2.274c1.315,1.133,2.534,2.377,3.793,3.574V72.6c-1.157,1.941-2.328,3.873-3.465,5.826-1.155,1.984-1.586,2.167-3.717,1.446a2.615,2.615,0,0,1-.458-.163,5.66,5.66,0,0,0-7.181.845,2.916,2.916,0,0,0-.87,1.318c-.358,1.371-.561,2.781-.876,4.163a2.04,2.04,0,0,1-2.31,1.861q-3.238.025-6.477,0a2.1,2.1,0,0,1-2.406-1.907c-.281-1.266-.584-2.534-.739-3.818a2.668,2.668,0,0,0-1.312-1.863c-1.9-1.5-3.718-1.524-5.937-.612-3.407,1.4-3.468,1.252-5.291-1.935-.745-1.3-1.459-2.624-2.247-3.9-.707-1.147-1-2.232.2-3.266l-10.487-1.128v1.338q0,50.649-.008,101.3c0,3.985-2.147,6.909-5.727,7.721a11.625,11.625,0,0,1-2.547.2q-39.654.014-79.308.007h-1.684c.163,4.2.287,8.258,2.023,12.024a7.581,7.581,0,0,0,1.912,2.315c2.946,2.619,5.984,5.137,8.911,7.777a10.094,10.094,0,0,1,2.039,2.7c.688,1.279.14,2.3-1.289,2.665a7.45,7.45,0,0,1-1.812.2q-34.277.011-68.554-.007c-1.253,0-2.716.14-3.3-1.272-.561-1.353.386-2.479,1.276-3.327a62.007,62.007,0,0,1,7.555-6.707c4.336-2.945,5.58-7.141,5.927-11.909.1-1.412.177-2.826.271-4.349h-29.987c0,.412-.006.837,0,1.263.114,7.072-.114,14.108-1.873,21.021-1.931,7.588-5.966,13.526-12.941,17.445A52.522,52.522,0,0,1-1570.3,226.6a11.09,11.09,0,0,1-8.871-4.367c-2.018-2.56-4.758-2.422-6.758.152-2.266,2.917-5.448,3.914-8.895,4.136a51.765,51.765,0,0,1-33.31-8.808c-6.01-4.078-9.249-9.9-10.515-16.875-.563-3.1-.782-6.267-1.157-9.4-.067-.56-.128-1.12-.191-1.68Zm69.579-29.461h196.528V150.4q0-42.377.013-84.753a2.088,2.088,0,0,0-.985-1.9,33.3,33.3,0,0,1-12.345-16.794c-.886-2.716-1.4-5.554-2.1-8.433h-188.2v102.82H-1572C-1571.464,144.868-1570.945,148.3-1570.421,151.766Zm182.645-116.134c.009,18.359,14.731,33.357,32.749,33.361A33.127,33.127,0,0,0-1321.7,35.724a33.113,33.113,0,0,0-33.055-33.3A33.117,33.117,0,0,0-1387.776,35.631Zm22.785,125.906h-169.689c.389.611.7,1.077.987,1.554,2.844,4.684,4.2,9.919,5.627,15.126a4.331,4.331,0,0,0,.218.5h1.589q77.107-.007,154.214-.015c.57,0,1.142,0,1.708-.05a5.594,5.594,0,0,0,5.293-5.034C-1364.837,169.623-1364.992,165.608-1364.992,161.537Zm-23.843-131.354h-1.346q-95.087-.009-190.174-.018a5.864,5.864,0,0,0-6.172,6.1q-.008,51.875-.007,103.75c0,.427.038.853.057,1.269h8.333V37.792h188.9C-1389.107,35.233-1388.976,32.812-1388.835,30.183Zm23.788,129.838v-91l-8.307-3.875v87.328h-196.935l.7,4.624c3.378,0,6.635-.074,9.888.015a119.6,119.6,0,0,1,20.632,2.022,33.682,33.682,0,0,0,6.812.929q82.861-.067,165.723-.037Zm-164.521,15.455c-.352-1.337-.588-2.355-.887-3.354a33.291,33.291,0,0,0-4.308-9.606,6.389,6.389,0,0,0-4.342-2.806,129.992,129.992,0,0,0-22.59-2.033q-22.352-.2-44.708.005a131.547,131.547,0,0,0-22.106,1.978,6.771,6.771,0,0,0-4.771,3.186,38.26,38.26,0,0,0-4.671,11.416c-.22.837.032,1.207.782,1.425,1.636.477,3.244,1.078,4.906,1.432,10.563,2.252,21.314,2.642,32.051,2.881,10.175.226,20.36.165,30.537.017a197.618,197.618,0,0,0,31-2.438C-1535.652,177.056-1532.691,176.207-1529.568,175.476Zm33.01,4.669c-.054.918-.051,1.77-.164,2.606-.319,2.366-.6,4.741-1.058,7.082a9.543,9.543,0,0,1-3.606,5.872c-2.493,1.955-4.873,4.056-7.25,6.152a24.908,24.908,0,0,0-2.579,2.744,4.236,4.236,0,0,0-.487,1.323,5.178,5.178,0,0,0,1.433.437q34.814.028,69.628,0a11.064,11.064,0,0,0,1.614-.234l.242-.389a22.475,22.475,0,0,0-2.286-2.853c-2.523-2.3-5.044-4.62-7.763-6.673a11.776,11.776,0,0,1-4.58-8.135c-.386-2.6-.622-5.221-.936-7.933Zm158.3-114.012a33.159,33.159,0,0,1-10.746,3.712,5.159,5.159,0,0,0-2.869,1.416c-.645.6-.814,1.067-.316,1.862.947,1.511,1.79,3.087,2.672,4.639.894,1.574.887,1.561,2.616.993,1.5-.492,3.061-1.442,4.492-1.279s2.789,1.4,4.115,2.267a2.35,2.35,0,0,1,.882,1.289c.382,1.491.681,3.005.934,4.524.127.765.483,1,1.227.986,1.955-.037,3.913-.075,5.864.013,1.089.049,1.5-.32,1.654-1.384.248-1.677.241-3.642,1.153-4.9.943-1.3,2.854-1.913,4.342-2.825.035-.021.067-.058.1-.062a3.8,3.8,0,0,1,1.344-.106c1.48.434,2.942.938,4.389,1.475a1.091,1.091,0,0,0,1.575-.6c.822-1.538,1.72-3.034,2.578-4.553,1.123-1.989,1.34-1.745-.566-3.094-2.676-1.894-3.954-4.248-3.512-7.475a3.084,3.084,0,0,1,.687-1.656c1.044-1.077,2.2-2.05,3.345-3.026a1.06,1.06,0,0,0,.246-1.576c-1.037-1.742-2.07-3.491-3.008-5.287a1.218,1.218,0,0,0-1.858-.651c-.816.354-1.73.495-2.527.881-1.509.73-2.917.862-4.274-.287-.046-.039-.153-.005-.1-.005l-5.477,7.932c2.961,2.076,4.047,4.363,3.333,7.094a6.405,6.405,0,0,1-5.56,4.612C-1334.326,71.334-1336.542,69.739-1338.26,66.132ZM-1570.3,156.809l-2.189-14.743h-23.526l-2.177,14.743Zm-4.134,36.667c0,4.423.009,8.842,0,13.261-.006,1.789-.038,1.825,1.725,2.263,5.011,1.246,10.012.524,15.117-.045a70.109,70.109,0,0,0-.505-17.43Zm-35.906,13.915a84.187,84.187,0,0,0,2.919,16.467,1.148,1.148,0,0,0,1.175.964c2.106.163,4.21.457,6.318.491,2.377.038,4.758-.151,7.208-.244-.235-5.585-.458-10.864-.671-15.934Zm16.949-13.889-16.156-2.936a69.328,69.328,0,0,0-.84,16.038c5.651.716,11.231,1.7,17,1.628Zm.6,14.566c6.041-1.986,11.8-2.237,17.594-.007a6.279,6.279,0,0,0,.1-.736c-.016-4.458-.049-8.915-.05-13.373,0-.666-.316-.892-.9-1.053a31,31,0,0,0-15.9.058,1.339,1.339,0,0,0-.663,1.035c-.1,3.037-.137,6.077-.175,9.116C-1592.8,204.681-1592.787,206.253-1592.787,208.067ZM-1542,190.1l-15.087,1.193c.171,6,.333,11.691.5,17.455-.1-.022.015.039.12.02,4.554-.837,9.109-1.667,13.652-2.56.287-.057.641-.588.686-.934A63,63,0,0,0-1542,190.1Zm-32.426,19.046c-.2,4.5-.408,8.826-.586,13.155-.086,2.075-.064,2.085,1.962,2.555,3.969.921,7.929.352,11.882-.129.272-.033.613-.48.71-.8a40.273,40.273,0,0,0,1.056-3.986c.659-3.358,1.247-6.73,1.9-10.286C-1563.318,210.146-1568.861,211.024-1574.421,209.149Zm-36.09-18.7a83.463,83.463,0,0,0-14.633-.985,1.018,1.018,0,0,0-.685.718c-.061,4.371-.06,8.743-.093,13.115-.006.759.314,1.029,1.068,1.131,2.417.328,4.819.755,7.23,1.123,2.145.327,4.3.625,6.285.913C-1611.061,201.092-1610.792,195.882-1610.511,190.453Zm18.391,34.128c2.123-.187,3.677-1.1,5.363-3.279a5.1,5.1,0,0,1,5.016-2.055,5.726,5.726,0,0,1,3.731,2.291c.634.737,1.347,1.405,2.024,2.1l.34-.189c.172-4.686.361-9.371.476-14.058.008-.308-.494-.784-.857-.921a22.494,22.494,0,0,0-13.425-.684c-3.227.77-3.266.776-3.166,4.083C-1592.491,216.081-1592.292,220.287-1592.12,224.581Zm-33.613-19.664a59.408,59.408,0,0,0,3.577,14.551,1.794,1.794,0,0,0,.979.813c2.523,1,5.04,2.029,7.612,2.894,1.782.6,3.648.95,5.467,1.41.089-.314.145-.4.127-.463a88.725,88.725,0,0,1-2.99-16.223,1.316,1.316,0,0,0-.877-.848c-1.472-.3-2.97-.463-4.456-.688C-1619.38,205.893-1622.463,205.417-1625.733,204.916Zm83.473,1.963c-4.771.862-9.246,1.694-13.731,2.46-.778.133-1.027.407-1.157,1.192-.6,3.6-1.28,7.178-1.964,10.759-.2,1.052-.505,2.084-.8,3.275a46.866,46.866,0,0,0,13.682-4.324,1.479,1.479,0,0,0,.613-.826c.758-2.35,1.54-4.7,2.189-7.078C-1542.95,210.594-1542.663,208.8-1542.26,206.879Zm-50.12-14.463a31.558,31.558,0,0,1,17.3.1c-.207-3.6-.388-6.994-.635-10.38-.015-.207-.558-.535-.856-.537-4.884-.022-9.768.009-14.652,0-.689,0-.919.255-.936.923-.028,1.093-.193,2.182-.211,3.275C-1592.405,187.968-1592.38,190.144-1592.38,192.416Zm34.37-1.546c-.816-3.205-1.56-6.216-2.386-9.2-.066-.241-.693-.472-1.055-.465-2.885.054-5.768.184-8.653.254-1.614.039-3.229.007-4.964.007.216,3.877.418,7.491.635,11.37Zm16.778,15.028c1.689-.4,3.505-.8,5.308-1.257,1.487-.377,3.387-.4,4.314-1.346s1-2.836,1.254-4.344c.447-2.7.745-5.42,1.141-8.4l-12.017-.467Zm-68.364-15.991,16.248,2.962c.217-3.957.413-7.535.606-11.06-.187-.1-.256-.166-.327-.168-4.55-.152-9.1-.308-13.651-.419a1,1,0,0,0-.751.574C-1608.2,184.44-1608.87,187.1-1609.6,189.907Zm49.854-8.8c.787,3.284,1.538,6.418,2.3,9.584l15.547-1.236c-.591-3.025-1.185-5.917-1.7-8.823-.136-.766-.466-.878-1.154-.8q-3.637.405-7.286.715C-1554.59,180.757-1557.142,180.917-1559.742,181.1Zm-66.915,23.022V189.3l-12.14,1.3c.6,3.948,1.134,7.581,1.721,11.206a1.038,1.038,0,0,0,.692.65C-1633.151,203.043-1629.91,203.577-1626.656,204.127Zm97.4-14.062c0-4.49.328-8.868-.331-13.094l-13.436,2.862c.5,3,.991,6.069,1.559,9.126.046.25.613.561.95.576,2.44.106,4.883.119,7.323.212C-1531.939,189.794-1530.693,189.945-1529.254,190.065Zm-108.986-13.007a98.7,98.7,0,0,0-.344,12.89l12.217-1.278c.549-2.945,1.1-5.877,1.619-8.687Zm12.522,11.444c5.138.441,10.062.871,14.988,1.266a.876.876,0,0,0,.717-.414c.664-2.689,1.276-5.39,1.912-8.135l-16.034-1.268Zm-10.915,14.584c.45,5.713,7.9,14.5,13.625,16.071-.121-.428-.237-.8-.33-1.173-.924-3.73-1.9-7.449-2.742-11.2-.44-1.953-.332-1.994-2.387-2.348C-1631.177,203.973-1633.892,203.539-1636.633,203.087Zm104.9,1.176c-3.254.776-6.325,1.486-9.377,2.272-.289.074-.57.595-.658.956-.585,2.393-1.075,4.81-1.679,7.2-.4,1.573-.933,3.111-1.456,4.824C-1538.256,216.271-1533.8,211.43-1531.734,204.263Zm199.759-133.818a5.611,5.611,0,0,0,5.362-4.02,5.506,5.506,0,0,0-2.37-6.136,1.2,1.2,0,0,0-1.689.115c-2.007,1.7-4.1,3.31-6.2,4.887a1.011,1.011,0,0,0-.47,1.3A5.664,5.664,0,0,0-1331.976,70.445Z" transform="translate(0)" fill="#093d57" stroke="#093d57" stroke-width="1"/>
    <path id="Path_18" data-name="Path 18" d="M-848.412,832.885a10.512,10.512,0,0,0-1.055-.431,4.98,4.98,0,0,1-3.777-4.169,7.946,7.946,0,0,1,4.36-8.913c4.854-2.358,9.806-4.524,14.773-6.641,11.207-4.776,22.344-9.74,33.713-14.1,7.4-2.842,15.136-4.867,22.779-7.059,5.036-1.445,10.148-2.755,15.436-2.828a11.493,11.493,0,0,1,4.961.879c8.306,3.964,15.5,9.376,20.759,17.026a21.22,21.22,0,0,1,3.166,17.54c-.844,3.589-2.874,4.824-6.405,3.851a26.638,26.638,0,0,1-5.466-2.3c-1.013-.546-1.463-.37-2.086.452a44.732,44.732,0,0,1-3.485,4.2,6.324,6.324,0,0,1-7.767.47c-1.776-1.414-3.746-2.582-5.605-3.894-2.093-1.478-2.622-2.917-1.923-5.363.378-1.321.877-2.609,1.353-3.9a2.134,2.134,0,0,0-.553-2.539c-.984-.911-1.9-1.9-2.913-2.775a9.9,9.9,0,0,0-11.092-1.054c-2.145,1.265-4.712,2.238-5.454,5.046-.331,1.25-.49,2.547-.86,3.783a5.754,5.754,0,0,1-1,1.454,6.3,6.3,0,0,1-1.319-1.508,15.924,15.924,0,0,1-.573-2.6c-.2-.877-.622-1.164-1.579-.778-15.074,6.086-30.737,10.249-46.513,14.021-3.2.764-6.467,1.227-9.7,1.842a1.58,1.58,0,0,0-.467.289Zm88.072-42.969c-9.687.413-18.506,3.349-27.682,5.821,2.672,1.638,2.736,2.547.581,4.488a5.438,5.438,0,0,1-1.153.895,76.486,76.486,0,0,1-7.132,3.381,18.967,18.967,0,0,1-9.218,1.33c-2.027-.278-2.475-.99-1.965-2.926.012-.047-.079-.12-.174-.255-.468.185-.957.367-1.436.571-7.622,3.255-15.253,6.486-22.858,9.778-5.627,2.436-11.219,4.954-16.829,7.429-2.9,1.278-3.749,3.716-3.852,6.617-.036,1.021.42,1.487,1.375,1.292a45.3,45.3,0,0,0,6.029-1.415c15.51-5.483,30.984-11.068,46.488-16.567,6.391-2.267,12.748-4.633,19.473-5.855,5.651-1.027,10.421-.222,14.036,4.788,2.326,3.223,3.769,6.426,2.317,10.387-.111.3-.149.63-.229.944a4.484,4.484,0,0,0,1.861,5.22c1.622,1.155,3.185,2.393,4.764,3.608,1.865,1.436,2.85,1.478,4.551-.218a36.365,36.365,0,0,0,3.127-3.875c1.274-1.679,1.931-1.678,3.8-.726a27.543,27.543,0,0,0,5.865,2.231c2.116.52,3.194-.269,3.852-2.367a21.56,21.56,0,0,0,.581-8.2c-.036-.462-.128-.918-.218-1.543-1.539,1.125-3.006.813-4.443.292a20.708,20.708,0,0,1-2.893-1.278,48.816,48.816,0,0,1-12.6-10.285,32.091,32.091,0,0,1-5.976-8.691C-760.95,793.285-761.492,791.736-760.34,789.916Zm-91.231,39.094c.669,1.7,2.052,2.517,4.283,2.315a47.93,47.93,0,0,0,6.151-.9c16.072-3.6,31.986-7.76,47.4-13.636,4.663-1.778,9.324-3.55,13.51-6.4a10.59,10.59,0,0,1,8.694-1.205c2.99.709,4.923,2.872,7.035,4.832a3.59,3.59,0,0,1,.992,4.388,32.762,32.762,0,0,0-1.269,3.542c-.535,1.934-.188,2.809,1.452,3.961q2.994,2.1,6.032,4.139a7.11,7.11,0,0,0,1.335.55l.152-.3c-1.343-1.026-2.676-2.067-4.032-3.075-3.793-2.82-4.181-3.708-2.921-8.24a9.145,9.145,0,0,0-1.255-7.758c-3.241-5.118-7.561-7.486-13.8-6.255a99.952,99.952,0,0,0-14.333,3.909c-16.063,5.741-32.112,11.524-48.192,17.217C-843.953,827.37-847.526,828.931-851.571,829.01Zm93.147-38.117c-.971.031-1.418.439-1.22,1.331a12.471,12.471,0,0,0,.8,2.535,31.911,31.911,0,0,0,5.838,8.2,44.457,44.457,0,0,0,12.978,10.161,15.355,15.355,0,0,0,3.237,1.029c.922.214,1.478-.253,1.21-1.216a13.639,13.639,0,0,0-1.2-3.288,46.457,46.457,0,0,0-18.131-17.422A26.517,26.517,0,0,0-758.424,790.893Zm-44.928,14.522a28.619,28.619,0,0,0,15.195-5.382c.814-.611,1.988-1.35,1.563-2.5-.414-1.118-1.772-.986-2.8-.963a27.274,27.274,0,0,0-15.245,5.054,7.388,7.388,0,0,0-1.689,1.727.97.97,0,0,0,.612,1.671A23.991,23.991,0,0,0-803.352,805.416Zm16.863,15.917,1.7-6.774-3.7,1.61C-787.266,817.621-787.876,819.672-786.489,821.333Z" transform="translate(-594.321 -595.885)" fill="#093d57" stroke="#093d57" stroke-width="1"/>
    <path id="Path_19" data-name="Path 19" d="M-1173.72,262.559a9.619,9.619,0,0,0,6.9-6.3c.747-2.076.994-4.326,1.538-6.48a37.476,37.476,0,0,1,1.711-5.918,7.031,7.031,0,0,1,6.488-4.229,2.366,2.366,0,0,0,1.708-.923,14.1,14.1,0,0,0,2.495-3.585c.295-.555,1.231-.813,1.921-1.1a3.289,3.289,0,0,1,1.21-.079q21.144,0,42.287,0c.2,0,.408,0,.611.01,2.181.123,3.26,1.229,3.279,3.392.015,1.7.011,3.409,0,5.114-.015,2.4-1.1,3.5-3.513,3.5q-17.9.014-35.81.009c-2.363,0-4.726.008-7.089,0-2.335-.008-3.041-.6-3.606-2.908a1.515,1.515,0,0,0-.463-.617c-.669-.65-1.354-1.284-2.318-2.192a6.619,6.619,0,0,0-7.009,4.423,36.764,36.764,0,0,0-1.3,5.037,64.6,64.6,0,0,1-1.754,7.048c-1.169,3.173-3.64,5.08-6.8,6.375-1.174.481-2.072,1.961-2.753,3.176a1.5,1.5,0,0,0,.915,2.244,1.566,1.566,0,0,1,.871.955c.254.981.875,1.043,1.723,1.038,5.5-.031,11-.016,16.054-.016,1-.941,1.741-1.615,2.447-2.328a1.557,1.557,0,0,0,.4-.778,2.987,2.987,0,0,1,3.066-2.72c.325-.017.652-.007.978-.007l41.921.007c3.06,0,4.04.964,4.041,3.969,0,1.583.017,3.166-.005,4.749-.03,2.1-1.163,3.294-3.235,3.3q-21.755.027-43.51.007a2.969,2.969,0,0,1-3.258-2.772,1.645,1.645,0,0,0-.45-.748c-.515-.543-1.05-1.069-1.611-1.565a1.566,1.566,0,0,0-.851-.475q-8.372-.041-16.744,0a1.337,1.337,0,0,0-.744.422c-.551.508-1.021,1.11-1.609,1.567a2.089,2.089,0,0,0,.019,2.717,18.667,18.667,0,0,1,1.589,1.587,1.588,1.588,0,0,0,.564.442,10.744,10.744,0,0,1,7.458,7.561,47.624,47.624,0,0,1,1.264,6.176,14.958,14.958,0,0,0,2.021,6.059,6.814,6.814,0,0,0,6.4,3.044c.278-.013.56-.323.808-.533a14.2,14.2,0,0,0,1.233-1.138,2.328,2.328,0,0,0,.656-.973,2.962,2.962,0,0,1,2.911-2.611c.284-.021.57-.012.855-.012q21.2,0,42.41.006c2.836,0,3.825.986,3.829,3.8,0,1.664.023,3.329-.008,4.993a2.961,2.961,0,0,1-2.974,3.175c-.364.032-.731.047-1.1.047q-20.9,0-41.8-.023a4.837,4.837,0,0,1-2.863-.666c-.743-.609-.794-2.038-1.525-2.684-.794-.7-1.748-1.151-1.932-2.324a3.041,3.041,0,0,0-.127-.4c-.6-.031-1.2-.025-1.8-.1a7.3,7.3,0,0,1-6.357-5.157,44.545,44.545,0,0,1-1.458-6.62c-.526-3-1.3-5.865-3.4-8.2a8.629,8.629,0,0,0-4.361-2.746c-.97.886-1.76,1.566-2.492,2.3a1.364,1.364,0,0,0-.283.847c-.037.851,0,1.7-.019,2.557a2.961,2.961,0,0,1-3.221,3.177c-3.381.025-6.763.008-10.144.009q-19.248,0-38.5,0c-2.8,0-3.856-1.038-3.857-3.789q0-12.969,0-25.937c0-2.752,1.063-3.79,3.856-3.79l47.91.005c3.011,0,3.958.938,3.961,3.913,0,.528.035,1.058-.009,1.582a1.167,1.167,0,0,0,.828,1.391,15.206,15.206,0,0,1,1.95,1.066Zm-30.257-7.232v.005q-12.1,0-24.2,0c-1.8,0-2.243.436-2.244,2.207q-.005,13.212,0,26.424c0,1.692.464,2.149,2.178,2.15q10.756.006,21.511,0,13.627,0,27.255,0c1.547,0,2.062-.5,2.091-2.009a11.479,11.479,0,0,0-.027-2.187,3.173,3.173,0,0,0-.739-1.61,2.639,2.639,0,0,1,.094-4.058,2.471,2.471,0,0,0,.039-3.449,2.592,2.592,0,0,1-.057-4.119,2.444,2.444,0,0,0-.019-3.531,2.5,2.5,0,0,1-.071-3.926,1.982,1.982,0,0,0,.79-1.875c-.037-.606,0-1.217-.009-1.826-.017-1.758-.473-2.2-2.267-2.2Q-1191.816,255.326-1203.977,255.328Zm75.415,20.078v.006q10.753,0,21.506,0c1.628,0,2.13-.492,2.138-2.079.007-1.623,0-3.247,0-4.87,0-2.022-.4-2.425-2.4-2.425l-42.524,0c-.285,0-.629-.1-.844.024-.528.3-1.208.614-1.42,1.1a1.79,1.79,0,0,0,.538,1.488,2.581,2.581,0,0,1-.057,4.115c-.854.688-.843,1.427-.2,2.047a2.751,2.751,0,0,0,1.755.569C-1142.9,275.419-1135.73,275.406-1128.562,275.406Zm-.005-40.059v.007H-1149.7a2.574,2.574,0,0,0-1.085.044,2.725,2.725,0,0,0-1.293,1.064,1.65,1.65,0,0,0,.51,1.374,2.624,2.624,0,0,1-.023,4.21c-.693.555-.857,1.192-.359,1.742a2.713,2.713,0,0,0,1.744.809c2.685.085,5.374.037,8.062.037q17.471,0,34.942,0c1.773,0,2.247-.475,2.25-2.217q0-2.374,0-4.747c0-1.974-.35-2.323-2.353-2.323Q-1117.938,235.345-1128.567,235.347Zm-.122,70.746v.006q10.812,0,21.624,0c1.618,0,2.1-.452,2.107-1.955.009-1.623,0-3.246,0-4.869,0-2.079-.388-2.464-2.492-2.464q-21.135,0-42.271,0a2.6,2.6,0,0,0-1.2.075,2.755,2.755,0,0,0-1.192,1.2c-.12.32.223.967.545,1.272a2.613,2.613,0,0,1-.054,4.2c-.777.607-.808,1.3-.264,1.837a2.814,2.814,0,0,0,1.815.664C-1142.942,306.11-1135.815,306.094-1128.688,306.094Zm-45.76-35.376a1.97,1.97,0,0,0-2.016-2,1.975,1.975,0,0,0-2,2.011,1.978,1.978,0,0,0,2.016,2A1.972,1.972,0,0,0-1174.449,270.718Zm-2.036,9.6a1.973,1.973,0,0,0,2.037-1.977,2.03,2.03,0,0,0-1.985-2.054,2.022,2.022,0,0,0-2.036,2A1.975,1.975,0,0,0-1176.485,280.314Zm2.038-17.215a1.972,1.972,0,0,0-2.049-1.965,1.974,1.974,0,0,0-1.972,2.041,2.024,2.024,0,0,0,2.047,1.988A2.033,2.033,0,0,0-1174.447,263.1Zm23.253,38.4a1.988,1.988,0,0,0-1.969-2.029,1.935,1.935,0,0,0-2,1.972,1.947,1.947,0,0,0,1.95,2.023A1.96,1.96,0,0,0-1151.194,301.5Zm-1.949-28.773a1.934,1.934,0,0,0,1.949-2.019,1.932,1.932,0,0,0-1.976-1.992,1.954,1.954,0,0,0-2.016,2.081A1.944,1.944,0,0,0-1153.143,272.729Zm1.947-32.813a1.968,1.968,0,0,0-2.05-1.94,1.948,1.948,0,0,0-1.919,2.053,1.932,1.932,0,0,0,2.031,1.941A1.985,1.985,0,0,0-1151.2,239.917Z" transform="translate(-308.423 -176.2)" fill="#093d57" stroke="#093d57" stroke-width="1"/>
    <path id="Path_20" data-name="Path 20" d="M-431.7,104.733l12.181,10.828-12.215,10.857-.962-.91,11.163-9.945-11.063-9.854Z" transform="translate(-912.185 -78.469)" fill="#093d57" stroke="#093d57" stroke-width="1"/>
    <path id="Path_21" data-name="Path 21" d="M-562.359,115.6l11.045,9.827-.83,1.025-12.21-10.852,12.163-10.818.9.959Z" transform="translate(-812.711 -78.507)" fill="#093d57" stroke="#093d57" stroke-width="1"/>
    <path id="Path_22" data-name="Path 22" d="M-492.513,117.644l-1.258-.415,9.923-28.009,1.272.41Z" transform="translate(-866.04 -66.734)" fill="#093d57" stroke="#093d57" stroke-width="1"/>
    <path id="Path_23" data-name="Path 23" d="M-1297.911,686.339a3.067,3.067,0,0,1-3.066,2.985,3.07,3.07,0,0,1-3.062-3.11,3.131,3.131,0,0,1,3.067-3.009A3.123,3.123,0,0,1-1297.911,686.339Zm-.615.027a2.411,2.411,0,0,0-2.392-2.534,2.421,2.421,0,0,0-2.512,2.421,2.4,2.4,0,0,0,2.338,2.466A2.4,2.4,0,0,0-1298.526,686.366Z" transform="translate(-253.836 -516.054)" fill="#093d57" stroke="#093d57" stroke-width="1"/>
    <path id="Path_24" data-name="Path 24" d="M-1258.5,689.332a3.105,3.105,0,0,1-3.116-3.07,3.164,3.164,0,0,1,3.051-3.039,3.16,3.16,0,0,1,3.115,3.1A3.1,3.1,0,0,1-1258.5,689.332Zm2.4-3.023a2.41,2.41,0,0,0-2.353-2.447,2.413,2.413,0,0,0-2.516,2.411,2.431,2.431,0,0,0,2.356,2.457A2.43,2.43,0,0,0-1256.1,686.309Z" transform="translate(-285.891 -516.067)" fill="#093d57" stroke="#093d57" stroke-width="1"/>
    <path id="Path_25" data-name="Path 25" d="M-1538.72,686.279a3.05,3.05,0,0,1-2.971,3.06,3.057,3.057,0,0,1-3.135-3.014,3.109,3.109,0,0,1,2.968-3.084A3.109,3.109,0,0,1-1538.72,686.279Zm-5.492.029a2.385,2.385,0,0,0,2.475,2.44,2.429,2.429,0,0,0,2.424-2.508,2.432,2.432,0,0,0-2.436-2.378A2.393,2.393,0,0,0-1544.212,686.308Z" transform="translate(-71.909 -516.08)" fill="#093d57" stroke="#093d57" stroke-width="1"/>
    <path id="Path_26" data-name="Path 26" d="M-1587.321,686.246a3.127,3.127,0,0,1,3.056-3,3.161,3.161,0,0,1,3.075,3.121,3.115,3.115,0,0,1-3.2,2.976A3.053,3.053,0,0,1-1587.321,686.246Zm5.5.011a2.411,2.411,0,0,0-2.4-2.387,2.437,2.437,0,0,0-2.5,2.427,2.436,2.436,0,0,0,2.473,2.455A2.429,2.429,0,0,0-1581.819,686.257Z" transform="translate(-39.802 -516.084)" fill="#093d57" stroke="#093d57" stroke-width="1"/>
  </g>
</svg>
