<svg xmlns="http://www.w3.org/2000/svg" xmlns:xlink="http://www.w3.org/1999/xlink" width="159" height="160.034" viewBox="0 0 159 160.034">
  <defs>
    <linearGradient id="linear-gradient" x1="0.202" y1="0.064" x2="1" y2="1.029" gradientUnits="objectBoundingBox">
      <stop offset="0" stop-color="#14265a"/>
      <stop offset="1" stop-color="#3b5aaf"/>
    </linearGradient>
  </defs>
  <path id="Path_28" data-name="Path 28" d="M77.953,79.4l66.695-25.4a7.268,7.268,0,0,1-1.36-1.289L77.3,77.846a11.051,11.051,0,0,1,.653,1.559ZM66.922,35.434a7.192,7.192,0,0,1-1.708.419,333.4,333.4,0,0,0,.014,36.367,10.711,10.711,0,0,1,1.679-.247,330.387,330.387,0,0,1,.014-36.542Zm-47.694,5.21a7.247,7.247,0,0,1,.2,1.643c0,.077-.02.148-.021.221C26.783,38.022,42.09,29.849,57.031,28.83c0-.043-.014-.082-.014-.122a7.221,7.221,0,0,1,.19-1.59c-14.9.933-30.163,8.851-37.981,13.529ZM159,79.368a78.9,78.9,0,0,0-4.614-26.618,7.25,7.25,0,0,1-2.868,2.1,75.521,75.521,0,0,1-5.944,62.17c-4.128-1.476-9.818-3.646-16.571-6.4a7.222,7.222,0,0,1-1.015,1.455c6.8,2.758,12.524,4.932,16.728,6.434a76.172,76.172,0,0,1-64.771,36.835q-1.514-5.835-2.863-11.712a161.893,161.893,0,0,0,40.935-30.863,7.208,7.208,0,0,1-1.178-1.229A160.175,160.175,0,0,1,76.7,141.93,428.5,428.5,0,0,1,68.627,93.5q-.481.045-.965.047c-.251,0-.5-.02-.745-.037a430.683,430.683,0,0,0,8.234,49.233q-3.488,1.787-7.078,3.36a10.689,10.689,0,0,1,.61,1.569q3.471-1.52,6.848-3.241,1.259,5.46,2.665,10.886a76.555,76.555,0,0,1-9.753-.795,10.831,10.831,0,0,1-1.831,3.147,79.434,79.434,0,0,0,81.355-38.034c.2.068.951-1.459.859-1.491A78.745,78.745,0,0,0,159,79.367ZM47.483,150.748a10.757,10.757,0,0,1,.273-2.378A76.494,76.494,0,0,1,14.2,118.364q1.369-.454,2.721-.957a7.117,7.117,0,0,1-.4-1.644c-1.258.468-2.332.833-3.18,1.107A75.392,75.392,0,0,1,3.411,80.485c17.277,2.645,40.451,3.127,53.468,3.166-.028-.3-.043-.6-.045-.9,0-.265.02-.525.043-.784-13.038-.037-36.292-.518-53.478-3.18a75.374,75.374,0,0,1,6.34-29.706,7.234,7.234,0,0,1-2.878-1.9A79.2,79.2,0,0,0,47.567,152.024a11.315,11.315,0,0,1-.085-1.278ZM58.89,76.435c-15.5-9.131-30.054-19.2-41.056-29.659a7.412,7.412,0,0,1-1.19,1.178C28.106,58.86,43.126,69.112,58,77.9A10.33,10.33,0,0,1,58.89,76.435ZM16.652,36.627a76.187,76.187,0,0,1,52.4-32.514c-1.1,5.643-1.988,11.56-2.666,17.7a6.984,6.984,0,0,1,1.6.7c.71-6.476,1.647-12.7,2.822-18.626A75.956,75.956,0,0,1,145.58,41.7a7.191,7.191,0,0,1,3.271-.809c.054,0,.105.011.156.014A79.509,79.509,0,0,0,13.5,35.179,7.2,7.2,0,0,1,16.652,36.627ZM146.971,55.092C143.83,72.579,136.043,87.9,126.053,100.88a7.189,7.189,0,0,1,1.377.957c10.132-13.174,18.021-28.734,21.207-46.489A7.186,7.186,0,0,1,146.971,55.092Zm-69.3,31.752a10.294,10.294,0,0,1-.809,1.562c2.939,1.547,5.8,3.012,8.541,4.387,10.647,5.342,20.883,10.043,30.023,14.006a7.15,7.15,0,0,1,.331-1.763C104.192,100,90.983,93.828,77.67,86.842ZM110,10.683q-3.658,9.885-8.18,19.418a206.394,206.394,0,0,0-30.38-2.31,7.191,7.191,0,0,1,.092.917,7.1,7.1,0,0,1-.078.764,205.05,205.05,0,0,1,29.605,2.206A195.519,195.519,0,0,1,73.772,73.831a10.629,10.629,0,0,1,1.306,1.06,197.3,197.3,0,0,0,27.728-42.944c13.112,2.1,27.63,5.96,39.587,12.95a7.357,7.357,0,0,1,.927-1.4c-12.022-7.044-26.569-10.971-39.75-13.127q4.417-9.374,8.014-19.1L110,10.683Zm-80.884,99.4a7.114,7.114,0,0,1,.955,1.394A147.452,147.452,0,0,0,60,90.369a10.9,10.9,0,0,1-1.079-1.278,145.417,145.417,0,0,1-29.8,20.988Zm93.516,3.056a5.91,5.91,0,1,0-5.92-5.911h0a5.914,5.914,0,0,0,5.92,5.91Zm-64.324,46.9a9.287,9.287,0,1,0-9.3-9.287A9.293,9.293,0,0,0,58.309,160.033Zm90.542-106a5.916,5.916,0,0,0,5.92-5.911h0a5.92,5.92,0,0,0-11.84,0h0A5.916,5.916,0,0,0,148.851,54.037ZM64.279,34.617a5.91,5.91,0,1,0-5.92-5.911v0a5.913,5.913,0,0,0,5.92,5.91Zm-40.6,86.124a5.91,5.91,0,1,0-5.92-5.911h0A5.915,5.915,0,0,0,23.68,120.741ZM67.66,91.189a8.443,8.443,0,1,0,0-16.887h0A8.45,8.45,0,0,0,59.2,82.744v0A8.451,8.451,0,0,0,67.66,91.189Zm-61.4-48.9a5.92,5.92,0,1,1,5.92,5.91A5.914,5.914,0,0,1,6.261,42.287Z" transform="translate(0)" fill="url(#linear-gradient)"/>
</svg>
